<?xml version="1.0" encoding="UTF-8"?>
<svg id="_レイヤー_1" data-name="レイヤー 1" xmlns="http://www.w3.org/2000/svg" xmlns:xlink="http://www.w3.org/1999/xlink" viewBox="0 0 1451.34 1451.34">
  <defs>
    <style>
      .cls-1 {
        fill: #fff;
      }

      .cls-2 {
        fill: none;
      }

      .cls-3 {
        clip-path: url(#clippath-1);
      }

      .cls-4 {
        clip-path: url(#clippath);
      }
    </style>
    <clipPath id="clippath">
      <rect class="cls-2" x="306.88" y="174.62" width="837.59" height="1102.09"/>
    </clipPath>
    <clipPath id="clippath-1">
      <rect class="cls-2" x="306.88" y="174.62" width="837.59" height="1102.09"/>
    </clipPath>
  </defs>
  <g id="AI">
    <g class="cls-4">
      <g class="cls-3">
        <path class="cls-1" d="M990.17,769.75c-34.39,0-66.14,11.26-91.8,30.29l-66.11-74.37,66.11-74.36c25.66,19.02,57.41,30.28,91.8,30.28,85.22,0,154.29-69.08,154.29-154.29s-69.07-154.3-154.29-154.3c-61.25,0-114.18,35.7-139.09,87.43l-241.19-90.45c3.6-13.07,5.56-26.84,5.56-41.06,0-85.22-69.07-154.29-154.29-154.29s-154.3,69.07-154.3,154.29,69.08,154.3,154.3,154.3c34.39,0,66.14-11.26,91.8-30.29l149.07,167.71-101.79,38.16c-24.92-51.72-77.83-87.42-139.09-87.42-85.22,0-154.3,69.07-154.3,154.29s69.08,154.29,154.3,154.29c61.25,0,114.17-35.69,139.09-87.42l101.79,38.16-149.07,167.71c-25.66-19.02-57.41-30.28-91.8-30.28-85.22,0-154.3,69.07-154.3,154.29s69.08,154.29,154.3,154.29,154.29-69.07,154.29-154.29c0-14.22-1.97-27.98-5.56-41.06l241.19-90.44c24.91,51.72,77.83,87.42,139.09,87.42,85.22,0,154.29-69.08,154.29-154.29s-69.07-154.3-154.29-154.3M877.81,818.37c-10.76,11.44-19.83,24.5-26.72,38.81l-101.79-38.17,64.54-72.6,63.97,71.96ZM877.81,632.97l-63.97,71.97-64.54-72.61,101.79-38.16c6.89,14.31,15.96,27.36,26.72,38.8M573.53,434.6c10.76-11.44,19.83-24.5,26.72-38.81l241.19,90.45c-3.61,13.07-5.56,26.83-5.56,41.06s1.96,27.98,5.56,41.06l-111.76,41.91-156.15-175.67ZM609.9,766.73c3.6-13.08,5.56-26.84,5.56-41.06s-1.97-27.98-5.56-41.06l111.75-41.91,73.75,82.97-73.75,82.97-111.75-41.91ZM600.26,1055.55c-6.89-14.31-15.96-27.37-26.72-38.8l156.15-175.68,111.76,41.92c-3.61,13.07-5.56,26.83-5.56,41.06s1.96,27.98,5.56,41.05l-241.19,90.45Z"/>
      </g>
    </g>
  </g>
</svg>