<?xml version="1.0" encoding="UTF-8"?>
<svg id="_レイヤー_1" data-name="レイヤー 1" xmlns="http://www.w3.org/2000/svg" xmlns:xlink="http://www.w3.org/1999/xlink" viewBox="0 0 1451.34 1451.34">
  <defs>
    <style>
      .cls-1 {
        fill: #fff;
      }

      .cls-2 {
        fill: none;
      }

      .cls-3 {
        clip-path: url(#clippath-1);
      }

      .cls-4 {
        clip-path: url(#clippath);
      }
    </style>
    <clipPath id="clippath">
      <rect class="cls-2" x="197.96" y="197.96" width="1055.41" height="1055.41"/>
    </clipPath>
    <clipPath id="clippath-1">
      <rect class="cls-2" x="197.96" y="197.96" width="1055.41" height="1055.41"/>
    </clipPath>
  </defs>
  <g id="Network">
    <g class="cls-4">
      <g class="cls-3">
        <path class="cls-1" d="M679.91,631.52c47.48-24.09,95.97-44.47,145.14-61.12-37.91-38.62-77.2-74.79-117.23-108-15.2,9.5-33.15,15.01-52.39,15.01-17.75,0-34.39-4.7-48.8-12.88-48.49,49.44-87.79,101.28-119.34,160.63,21.03,28.47,42.27,55.75,63.74,81.97,42.42-28.33,85.33-53.52,128.87-75.62"/>
        <path class="cls-1" d="M420.24,805.85c25.5-21.51,51.14-41.8,76.94-60.86-13.9-17.03-27.62-34.41-41.19-52.14-13.89,34.76-25.73,72.18-35.75,113"/>
        <path class="cls-1" d="M317.11,1059.65c1.94-24.88,4.16-48.9,6.69-72.07-11.22,11.79-22.42,23.86-33.62,36.16,8.48,12.35,17.46,24.34,26.92,35.91"/>
        <path class="cls-1" d="M984.75,760.47c-37.29,58.57-78.73,116.21-123.69,172.15,5.1,11.93,7.92,25.05,7.92,38.84s-2.72,26.42-7.64,38.16c59.82,46.82,122.17,90.62,187.47,133.24,32.91-25.54,62.72-54.89,88.77-87.38-28.33-92.57-81.02-194.09-152.84-295.01"/>
        <path class="cls-1" d="M378.79,1123.33c35.61,31.09,75.42,57.48,118.49,78.19,67.61-53.38,131.87-111.62,191.71-173.34-11.26-16.07-17.89-35.62-17.89-56.73,0-11.73,2.05-22.96,5.79-33.4-14.12-13.27-28-26.68-41.67-40.3-32.86-32.72-64.78-66.92-95.87-102.67-47.08,34.78-93.71,73.85-140.02,117.35-9.61,62.5-16.28,132.22-20.54,210.89"/>
        <path class="cls-1" d="M1173.12,515.93c12.43.18,24.89.55,37.39,1.14-15.86-36.82-35.8-71.46-59.23-103.38-5.04,15.69-10.43,31.43-16.2,47.2,18.4,13.2,32.08,32.54,38.04,55.04"/>
        <path class="cls-1" d="M747.79,342.96c4.24,11.02,6.59,22.99,6.59,35.51,0,11.36-1.94,22.26-5.47,32.43,50.67,41.94,100.11,88.32,147.13,138.22,27.52-7.19,55.2-13.21,83-18.05,4.93-47.92,44.06-85.69,92.57-88.52,10.94-29.65,20.52-59.17,28.71-88.47-53.9-54.34-119.53-97.04-192.79-123.93-59.2,39.95-112.27,76.89-159.76,112.82"/>
        <path class="cls-1" d="M994.1,594.56c-16.28,2.71-32.47,5.84-48.58,9.4,11.23,13.01,22.16,26.1,32.81,39.25,7.5-13.4,14.75-26.82,21.76-40.26-2.13-2.69-4.14-5.48-5.99-8.38"/>
        <path class="cls-1" d="M770.04,872.51c16.59,0,32.21,4.1,45.95,11.32,46.48-58.38,88.89-118.62,126.55-179.73-18.63-23.74-38.24-47.34-58.83-70.68-3.19-3.61-6.42-7.19-9.64-10.77-95.97,29.12-189.24,73.83-280.66,134.51,40.68,46.42,82.29,89.43,125.08,129.82,15.01-9.18,32.66-14.48,51.55-14.48"/>
        <path class="cls-1" d="M1167.86,581.56c-15.42,34.58-50.08,58.69-90.39,58.69-7.38,0-14.57-.83-21.49-2.36-10.83,20.58-22.2,41.11-34.1,61.57,71.52,96.81,126.9,195.38,162.01,288.11,44.21-77.18,69.49-166.59,69.49-261.9,0-48.9-6.68-96.22-19.12-141.16-22.3-1.66-44.43-2.68-66.39-2.95"/>
        <path class="cls-1" d="M338.94,879.07c16.68-96.15,40.43-176.37,72.5-246.57-43.83-61.42-85.99-126.82-126.79-196.63-54.78,83.18-86.68,182.75-86.68,289.8,0,85.98,20.58,167.14,57.05,238.87,27.88-30.07,55.84-58.55,83.93-85.47"/>
        <path class="cls-1" d="M817.13,1058.5c-14.01,7.59-30.04,11.9-47.09,11.9-9.29,0-18.27-1.31-26.8-3.7-55.06,57.43-113.79,112-175.38,162.66,49.83,15.6,102.84,24.01,157.81,24.01,96.13,0,186.24-25.71,263.87-70.62-62.66-41.72-119.63-82.74-172.41-124.26"/>
        <path class="cls-1" d="M445.56,566.7c3.37-5.75,6.8-11.45,10.3-17.08,30.66-49.2,66.12-93.18,107.42-135.1-4.37-11.17-6.8-23.32-6.8-36.04,0-8.1.99-15.95,2.83-23.49-42.94-26.6-85.79-49.28-127.8-67.48-38.44,25.85-73.27,56.62-103.62,91.41,38.74,67.82,77.87,130.13,117.66,187.79"/>
        <path class="cls-1" d="M595.4,299.84c16.65-12.73,37.45-20.31,60.03-20.31,17.93,0,34.72,4.8,49.23,13.14,36.51-27.69,76.2-55.87,119.36-85.51-31.87-6.01-64.74-9.2-98.36-9.2-79.96,0-155.73,17.82-223.64,49.64,30.95,15.37,62.16,32.84,93.37,52.24"/>
      </g>
    </g>
  </g>
</svg>